<?xml version="1.0" standalone="no"?> <!DOCTYPE svg PUBLIC "-//W3C//DTD SVG 1.0//EN" "http://www.w3.org/TR/2001/REC-SVG-20010904/DTD/svg10.dtd" > <svg xmlns="http://www.w3.org/2000/svg" width="100%" height="100%">
<defs >
<font id="apexnewmedium" horiz-adv-x="422" ><font-face
    font-family="Apex New Truetype"
    units-per-em="1000"
    panose-1="2 1 6 0 4 5 1 1 1 3"
    ascent="750"
    descent="-250"
    alphabetic="0" />
<missing-glyph horiz-adv-x="649" d="M247 293V535H403V293H247ZM325 47Q244 47 175 31T50 -10V156Q106 179 175 193T325 208Q406 208 475 194T600 156V-10Q544 14 475 30T325 47ZM515 760Q556 760 583 733T610 665Q610 625 583 598T515 570Q475 570 448 597T420
665Q420 706 447 733T515 760ZM135 760Q175 760 202 733T230 665Q230 625 203 598T135 570Q94 570 67 597T40 665Q40 706 67 733T135 760Z" />
<glyph unicode=" " glyph-name="space" horiz-adv-x="200" />
<glyph unicode="!" glyph-name="exclam" horiz-adv-x="220" d="M72 210L39 750H181L148 210H72ZM37 61Q37 91 58 112T110 134Q140 134 161 113T183 61Q183 31 162 10T110 -12Q80 -12 59 9T37 61Z" />
<glyph unicode="&quot;" glyph-name="quotedbl" horiz-adv-x="365" d="M64 500L34 750H166L136 500H64ZM229 500L199 750H331L301 500H229Z" />
<glyph unicode="#" glyph-name="numbersign" horiz-adv-x="650" d="M108 470H201L248 625H359L312 470H432L479 625H590L543 470H640L612 376H515L477 249H570L542 155H448L402 0H291L337 155H217L171 0H60L106 155H10L38 249H135L173 376H80L108 470ZM246 249H366L404
376H284L246 249Z" />
<glyph unicode="$" glyph-name="dollar" horiz-adv-x="508" d="M155 414Q155 386 180 377T261 362Q318 357 356 348T419 321T453 277T463 209Q463 174 450 145T409 94T336 62T228 50L189 -63H94L138 58Q112 62 90 67T54 80V179Q69 173 89 168T134 159T183 152T234
149Q352 149 352 211Q352 242 328 254T247 271Q190 276 152 285T90 310T57 351T47 412Q47 490 101 531T270 573L309 687H404L359 565Q382 561 403 557T439 545V445Q406 457 359 465T261 474Q207 474 181 461T155 414Z" />
<glyph unicode="%" glyph-name="percent" horiz-adv-x="1008" d="M231 0L674 625H777L335 0H231ZM964 181Q964 86 921 37T783 -12Q690 -12 647 36T603 181Q603 276 646 325T783 374Q877 374 920 326T964 181ZM705 181Q705 123 723 101T783 79Q825 79 843 101T862
181Q862 239 844 261T783 283Q742 283 724 261T705 181ZM405 444Q405 349 362 300T225 251Q131 251 88 299T44 444Q44 539 87 588T225 637Q319 637 362 589T405 444ZM146 444Q146 386 164 364T225 342Q266 342 285 364T304 444Q304 502 285 524T225 546Q183 546
165 524T146 444Z" />
<glyph unicode="&amp;" glyph-name="ampersand" horiz-adv-x="734" d="M131 576Q131 608 140 641T172 701T231 745T321 762Q373 762 408 747T465 708T495 651T504 583Q504 543 489 513T449 460T390 417T319 378Q353 330 400 280T498 193Q542 247 566 325T591 500H704Q704
384 674 292T592 134Q624 116 655 105T718 82L677 -12Q637 0 597 17T516 60Q418 -12 292 -12Q236 -12 190 0T110 40T58 108T39 208Q39 250 48 282T74 339T116 384T173 421Q154 455 143 494T131 576ZM414 125Q384 144 356 168T304 219T258 274T220 328Q184 306 169
280T153 211Q153 178 165 156T196 119T241 98T291 92Q325 92 357 101T414 125ZM240 577Q240 548 247 521T270 464Q297 478 320 490T361 516T387 545T396 582Q396 614 380 636T322 658Q277 658 259 635T240 577Z" />
<glyph unicode="&apos;" glyph-name="quotesingle" horiz-adv-x="200" d="M64 500L34 750H166L136 500H64Z" />
<glyph unicode="(" glyph-name="parenleft" horiz-adv-x="318" d="M175 -206Q156 -178 134 -130T94 -17T63 129T50 305Q50 400 62 481T93 627T134 740T175 816H288Q269 788 247 740T206 627T175 481T162 305Q162 210 174 129T206 -17T247 -130T288 -206H175Z" />
<glyph unicode=")" glyph-name="parenright" horiz-adv-x="318" d="M30 -206Q49 -178 71 -130T112 -17T143 129T156 305Q156 400 144 481T112 627T71 740T30 816H143Q162 788 184 740T224 627T255 481T268 305Q268 210 256 129T225 -17T184 -130T143 -206H30Z" />
<glyph unicode="*" glyph-name="asterisk" horiz-adv-x="500" d="M298 607L428 671L471 539L329 514L430 411L317 330L250 457L183 330L70 411L170 514L29 539L72 671L201 607L181 750H319L298 607Z" />
<glyph unicode="+" glyph-name="plus" horiz-adv-x="600" d="M353 393H524V287H353V116H247V287H76V393H247V564H353V393Z" />
<glyph unicode="," glyph-name="comma" horiz-adv-x="220" d="M174 106L96 -125H17L45 106H174Z" />
<glyph unicode="-" glyph-name="hyphen" horiz-adv-x="315" d="M285 261H30V362H285V261Z" />
<glyph unicode="." glyph-name="period" horiz-adv-x="220" d="M37 61Q37 91 58 112T110 134Q140 134 161 113T183 61Q183 31 162 10T110 -12Q80 -12 59 9T37 61Z" />
<glyph unicode="/" glyph-name="slash" horiz-adv-x="463" d="M0 -200L345 800H463L118 -200H0Z" />
<glyph unicode="0" glyph-name="zero" horiz-adv-x="586" d="M293 -12Q225 -12 179 7T104 65T63 166T50 313Q50 398 62 459T103 560T178 618T293 637Q361 637 407 619T482 561T523 460T536 313Q536 228 524 167T483 66T408 7T293 -12ZM293 535Q255 535 230 522T189
482T168 413T162 313Q162 254 168 212T189 142T229 103T293 90Q331 90 356 102T397 142T418 211T424 313Q424 371 418 413T397 482T357 522T293 535Z" />
<glyph unicode="1" glyph-name="one" horiz-adv-x="344" d="M250 637V0H137V523L13 519V586L196 637H250Z" />
<glyph unicode="2" glyph-name="two" horiz-adv-x="520" d="M352 441Q352 487 328 511T236 535Q187 535 147 526T73 502V607Q102 619 149 628T245 637Q316 637 359 621T427 578T459 518T467 451Q467 406 453 369T405 292T319 207T189 103L477 104V0H38V75Q138
152 199 208T295 306T340 380T352 441Z" />
<glyph unicode="3" glyph-name="three" horiz-adv-x="584" d="M237 534Q138 534 49 496V603Q80 618 135 627T249 637Q319 637 369 623T451 582T498 517T513 432Q513 375 486 333T416 270Q469 256 503 210T537 95Q537 44 521 1T471 -72T382 -120T250 -137Q192 -137
138 -128T48 -103V4Q96 -16 145 -24T246 -33Q295 -33 328 -24T381 3T411 43T420 95Q420 161 384 186T272 212H132V314H274Q336 314 366 343T396 421Q396 476 360 505T237 534Z" />
<glyph unicode="4" glyph-name="four" horiz-adv-x="599" d="M475 163H568V58H475V-125H365V58H33V132L388 637H475V163ZM365 163L367 450L167 161L365 163Z" />
<glyph unicode="5" glyph-name="five" horiz-adv-x="584" d="M246 -137Q187 -137 136 -128T55 -104V-3Q84 -14 131 -24T240 -35Q271 -35 301 -30T356 -10T395 34T410 107Q410 149 397 172T363 207T315 220T259 223H80V625H511V521H191V323Q197 324 209 324T234
325T260 326T277 326Q325 326 370 319T449 290T504 224T525 107Q525 25 499 -23T431 -96T341 -129T246 -137Z" />
<glyph unicode="6" glyph-name="six" horiz-adv-x="592" d="M351 658Q294 658 258 639T200 584T169 500T159 392Q182 427 224 450T327 473Q400 473 443 450T510 392T540 313T547 230Q547 190 539 148T506 70T433 11T308 -12Q228 -12 179 11T101 78T63 187T53 333Q53
428 64 507T108 642T196 730T342 762Q411 762 456 750T522 727V622Q491 638 449 648T351 658ZM435 230Q435 256 430 281T412 327T374 360T311 373Q269 373 241 362T197 330T175 284T168 230Q168 201 174 176T196 131T238 100T305 88Q344 88 369 100T409 133T429
178T435 230Z" />
<glyph unicode="7" glyph-name="seven" horiz-adv-x="541" d="M83 -125L405 524L25 522V625H514V553L216 -125H83Z" />
<glyph unicode="8" glyph-name="eight" horiz-adv-x="584" d="M292 435Q324 435 347 444T384 468T406 504T413 547Q413 570 407 591T386 628T348 654T292 664Q259 664 236 655T199 629T178 591T171 547Q171 525 178 505T199 469T237 444T292 435ZM292 86Q335 86
364 97T409 128T433 169T440 215Q440 342 292 342Q144 342 144 215Q144 192 151 170T174 128T219 98T292 86ZM292 -12Q226 -12 178 4T97 50T49 121T33 214Q33 246 41 275T65 328T102 369T148 395Q109 415 83 455T57 552Q57 597 70 635T111 702T184 746T292 762Q355
762 400 746T473 702T514 636T527 552Q527 496 501 456T436 395Q461 387 482 370T518 328T542 275T551 214Q551 163 536 122T488 51T407 5T292 -12Z" />
<glyph unicode="9" glyph-name="nine" horiz-adv-x="592" d="M246 -33Q303 -33 339 -14T397 41T427 125T437 233Q415 198 373 175T270 152Q197 152 154 175T87 233T57 312T50 395Q50 435 58 477T91 555T164 614T289 637Q369 637 419 614T496 546T534 438T544 292Q544
197 533 118T489 -17T401 -105T255 -137Q186 -137 138 -125T70 -102V3Q102 -13 146 -23T246 -33ZM162 395Q162 369 167 343T185 297T223 265T286 252Q328 252 355 263T399 295T422 340T429 395Q429 424 423 449T401 494T359 525T292 537Q253 537 228 525T188 492T168
447T162 395Z" />
<glyph unicode=":" glyph-name="colon" horiz-adv-x="217" d="M37 61Q37 91 58 112T110 134Q140 134 161 113T183 61Q183 31 162 10T110 -12Q80 -12 59 9T37 61ZM37 375Q37 405 58 426T110 448Q140 448 161 427T183 375Q183 345 162 324T110 302Q80 302 59 323T37 375Z" />
<glyph unicode=";" glyph-name="semicolon" horiz-adv-x="220" d="M174 106L96 -125H17L45 106H174ZM37 375Q37 405 58 426T110 448Q140 448 161 427T183 375Q183 345 162 324T110 302Q80 302 59 323T37 375Z" />
<glyph unicode="&lt;" glyph-name="less" horiz-adv-x="600" d="M524 74L76 295V387L524 608V493L206 341L524 189V74Z" />
<glyph unicode="=" glyph-name="equal" horiz-adv-x="600" d="M76 375V481H524V375H76ZM76 199V305H524V199H76Z" />
<glyph unicode="&gt;" glyph-name="greater" horiz-adv-x="600" d="M76 189L394 341L76 493V608L524 387V295L76 74V189Z" />
<glyph unicode="?" glyph-name="question" horiz-adv-x="475" d="M182 656Q138 656 94 649T23 630V737Q47 747 93 754T190 762Q270 762 319 745T397 700T434 633T444 553Q444 503 429 470T389 415T330 378T262 350Q237 341 225 329T207 299T201 259T200 210H130Q125
228 121 248T116 292Q116 329 132 361T199 415Q227 427 251 437T293 461T321 496T331 550Q331 575 325 595T301 628T255 649T182 656ZM106 61Q106 91 127 112T179 134Q209 134 230 113T252 61Q252 31 231 10T179 -12Q149 -12 128 9T106 61Z" />
<glyph unicode="@" glyph-name="at" horiz-adv-x="962" d="M613 50L595 90Q570 67 530 52T445 37Q405 37 371 50T311 89T270 155T255 250Q255 304 270 344T310 411T370 450T445 463Q489 463 529 448T595 410L613 450H679V125Q721 125 747 140T788 181T808 240T814
312Q814 445 735 504T486 564Q316 564 233 490T150 250Q150 84 233 10T486 -64Q521 -64 561 -61T641 -52T714 -38T772 -19V-99Q747 -108 713 -115T641 -129T562 -138T486 -141Q280 -141 172 -45T64 250Q64 448 172 544T486 641Q691 641 794 558T898 309Q898 266
889 221T854 137T786 75T675 50H613ZM367 250Q367 187 392 160T465 133Q501 133 526 142T567 160V340Q552 348 527 357T465 367Q417 367 392 340T367 250Z" />
<glyph unicode="A" glyph-name="A" horiz-adv-x="640" d="M440 183H200L147 0H25L263 759H377L615 0H493L440 183ZM320 607L224 275H416L320 607Z" />
<glyph unicode="B" glyph-name="B" horiz-adv-x="608" d="M61 750H313Q382 750 427 735T500 691T539 626T551 545Q551 497 528 457T461 396Q515 380 544 333T574 220Q574 173 562 133T520 64T441 17T319 0H61V750ZM173 103H323Q362 103 387 113T428 139T448 178T454
223Q454 281 425 311T324 342H173V103ZM431 540Q431 559 427 578T411 612T376 637T316 647H173V437H320Q354 437 375 446T409 470T426 503T431 540Z" />
<glyph unicode="C" glyph-name="C" horiz-adv-x="587" d="M51 375Q51 467 68 539T122 660T218 736T360 762Q427 762 468 752T536 730V623Q493 640 456 648T367 657Q260 657 213 586T166 375Q166 236 213 165T367 93Q418 93 455 101T536 127V20Q509 9 468 -1T360
-12Q277 -12 218 14T122 89T68 211T51 375Z" />
<glyph unicode="D" glyph-name="D" horiz-adv-x="650" d="M61 0V750H284Q377 750 438 722T536 643T587 524T602 375Q602 295 588 227T537 108T439 29T284 0H61ZM173 103H287Q343 103 381 122T442 178T475 264T485 375Q485 436 475 486T442 572T381 627T287 647H173V103Z" />
<glyph unicode="E" glyph-name="E" horiz-adv-x="565" d="M485 337H173V103H517V0H61V750H517V647H173V440H485V337Z" />
<glyph unicode="F" glyph-name="F" horiz-adv-x="544" d="M477 333H173V0H61V750H509V647H173V436H477V333Z" />
<glyph unicode="G" glyph-name="G" horiz-adv-x="651" d="M356 -12Q272 -12 214 15T120 93T68 214T51 375Q51 463 67 535T120 657T215 734T359 762Q437 762 489 751T574 723V613Q521 635 474 646T373 657Q315 657 276 638T212 583T177 495T166 375Q166 237 212
165T373 93Q408 93 435 97T480 107V312H347V413H592V34Q577 26 554 18T500 3T433 -8T356 -12Z" />
<glyph unicode="H" glyph-name="H" horiz-adv-x="650" d="M477 0V337H173V0H61V750H173V440H477V750H589V0H477Z" />
<glyph unicode="I" glyph-name="I" horiz-adv-x="266" d="M77 0V750H189V0H77Z" />
<glyph unicode="J" glyph-name="J" horiz-adv-x="374" d="M22 107Q37 102 56 99T100 95Q141 95 166 112T192 172V750H304V155Q304 73 257 31T106 -12Q89 -12 65 -9T22 0V107Z" />
<glyph unicode="K" glyph-name="K" horiz-adv-x="623" d="M232 330L172 258L173 0H61V750H173L172 402L442 750H580L304 418L605 0H463L232 330Z" />
<glyph unicode="L" glyph-name="L" horiz-adv-x="524" d="M173 103H499V0H61V750H173V103Z" />
<glyph unicode="M" glyph-name="M" horiz-adv-x="816" d="M461 103H355L168 564L173 0H61V750H205L408 239L611 750H755V0H643L648 564L461 103Z" />
<glyph unicode="N" glyph-name="N" horiz-adv-x="658" d="M495 0L169 533L172 0H61V750H163L489 217L486 750H597V0H495Z" />
<glyph unicode="O" glyph-name="O" horiz-adv-x="680" d="M340 -12Q250 -12 194 18T106 102T63 225T51 375Q51 454 62 524T105 648T193 731T340 762Q430 762 486 732T574 648T617 525T629 375Q629 295 618 225T575 102T487 19T340 -12ZM340 660Q287 660 253 641T200
584T173 495T166 375Q166 308 173 255T199 166T253 110T340 90Q393 90 427 109T480 165T507 255T514 375Q514 442 507 494T481 584T427 640T340 660Z" />
<glyph unicode="P" glyph-name="P" horiz-adv-x="580" d="M173 0H61V750H302Q374 750 424 731T504 679T548 604T562 515Q562 469 549 427T505 352T424 301T302 281H173V0ZM173 383H307Q349 383 375 395T415 427T435 470T440 515Q440 536 435 559T416 601T375 634T307
647H173V383Z" />
<glyph unicode="Q" glyph-name="Q" horiz-adv-x="680" d="M471 20L705 -28V-142L238 0Q180 18 144 53T87 137T59 246T51 375Q51 458 62 529T106 651T194 732T340 762Q430 762 486 733T574 652T617 529T629 375Q629 311 623 255T600 152T552 73T471 21V20ZM340
660Q287 660 253 641T200 584T173 495T166 375Q166 308 173 255T199 166T253 110T340 90Q393 90 427 109T480 165T507 255T514 375Q514 442 507 494T481 584T427 640T340 660Z" />
<glyph unicode="R" glyph-name="R" horiz-adv-x="621" d="M173 0H61V750H305Q378 750 427 735T506 690T548 619T561 527Q561 454 535 403T439 327L596 0H465L329 305H173V0ZM173 407H321Q360 407 383 417T419 444T435 482T439 527Q439 550 435 572T419 610T384
637T321 647H173V407Z" />
<glyph unicode="S" glyph-name="S" horiz-adv-x="595" d="M305 436Q363 428 409 416T487 381T535 321T552 227Q552 174 536 130T485 55T396 6T267 -12Q239 -12 208 -9T147 -1T91 13T45 31V143Q60 136 81 128T130 112T189 99T260 94Q311 94 344 103T398 130T426
170T435 220Q435 251 428 271T405 304T363 324T299 336Q230 345 182 359T104 398T59 458T45 545Q45 586 58 625T101 694T183 743T311 762Q384 762 434 751T514 726V617Q472 635 423 645T317 656Q273 656 243 648T195 624T168 589T160 544Q160 514 168 495T195 465T240
447T305 436Z" />
<glyph unicode="T" glyph-name="T" horiz-adv-x="556" d="M334 647V0H222V647H27V750H529V647H334Z" />
<glyph unicode="U" glyph-name="U" horiz-adv-x="656" d="M328 -12Q290 -12 243 -3T154 33T84 108T56 236V750H168V246Q168 193 184 162T225 115T277 95T328 90Q351 90 379 94T431 115T471 162T488 246V750H600V236Q600 157 572 109T503 33T414 -3T328 -12Z" />
<glyph unicode="V" glyph-name="V" horiz-adv-x="640" d="M615 750L377 -9H263L25 750H147L320 140L493 750H615Z" />
<glyph unicode="W" glyph-name="W" horiz-adv-x="884" d="M372 750H512L639 159L737 750H856L715 -9H578L442 616L306 -9H169L28 750H147L245 159L372 750Z" />
<glyph unicode="X" glyph-name="X" horiz-adv-x="653" d="M480 750H613L395 384L622 0H486L318 302L150 0H14L241 384L23 750H156L318 451L480 750Z" />
<glyph unicode="Y" glyph-name="Y" horiz-adv-x="670" d="M392 301V0H278V301L23 750H150L335 400L520 750H647L392 301Z" />
<glyph unicode="Z" glyph-name="Z" horiz-adv-x="610" d="M30 0V75L414 644L55 642V750H565V675L181 106L580 108V0H30Z" />
<glyph unicode="[" glyph-name="bracketleft" horiz-adv-x="268" d="M174 -102H238V-206H65V816H238V712H174V-102Z" />
<glyph unicode="\" glyph-name="backslash" horiz-adv-x="463" d="M345 -200L0 800H118L463 -200H345Z" />
<glyph unicode="]" glyph-name="bracketright" horiz-adv-x="268" d="M94 712H30V816H203V-206H30V-102H94V712Z" />
<glyph unicode="^" glyph-name="asciicircum" horiz-adv-x="566" d="M283 642L131 375H16L237 762H329L550 375H435L283 642Z" />
<glyph unicode="_" glyph-name="underscore" horiz-adv-x="294" d="M0 -95H294V-186H0V-95Z" />
<glyph unicode="`" glyph-name="grave" horiz-adv-x="526" d="M216 550L117 750H252L310 550H216Z" />
<glyph unicode="a" glyph-name="a" horiz-adv-x="496" d="M332 345Q332 383 311 399T234 416Q185 416 146 407T78 386V483Q107 496 152 504T242 512Q303 512 342 499T404 463T435 407T444 334V0H378L360 40Q330 15 291 2T209 -12Q161 -12 128 1T75 37T46 89T37
148Q37 229 86 266T220 311L332 320V345ZM227 231Q189 226 169 210T148 154Q148 140 151 127T163 103T187 86T225 80Q259 80 284 89T332 113V243L227 231Z" />
<glyph unicode="b" glyph-name="b" horiz-adv-x="542" d="M301 512Q356 512 394 494T456 442T490 360T501 250Q501 188 491 140T456 58T394 6T301 -12Q250 -12 211 2T139 40L121 0H55V750H167V473Q194 490 228 501T301 512ZM275 417Q235 417 209 407T167 388V112Q182
104 208 94T275 83Q312 83 334 96T368 131T384 184T388 250Q388 284 384 314T368 368T334 404T275 417Z" />
<glyph unicode="c" glyph-name="c" horiz-adv-x="450" d="M154 250Q154 214 160 184T180 133T218 99T279 87Q323 87 353 93T410 110V13Q381 0 346 -6T272 -12Q206 -12 162 7T90 60T52 143T41 250Q41 308 52 356T90 439T161 493T272 512Q311 512 346 506T410 487V390Q383
401 353 407T279 413Q243 413 219 401T180 368T160 316T154 250Z" />
<glyph unicode="d" glyph-name="d" horiz-adv-x="542" d="M241 512Q279 512 313 501T375 473V750H487V0H421L403 40Q370 16 331 2T241 -12Q186 -12 148 6T86 57T52 139T41 250Q41 311 51 359T86 442T148 494T241 512ZM267 417Q230 417 208 404T174 368T158 315T154
250Q154 215 158 185T174 132T208 96T267 83Q307 83 333 93T375 112V388Q360 396 334 406T267 417Z" />
<glyph unicode="e" glyph-name="e" horiz-adv-x="510" d="M41 250Q41 310 53 358T91 441T159 493T263 512Q329 512 369 492T431 437T460 356T467 258Q467 245 467 233T465 209H154Q155 181 161 158T182 119T222 94T285 85Q333 85 372 93T444 115V19Q401 1 355
-5T268 -12Q205 -12 162 6T92 58T53 140T41 250ZM263 415Q232 415 212 406T180 379T161 339T154 287H354Q354 312 352 335T341 376T314 404T263 415Z" />
<glyph unicode="f" glyph-name="f" horiz-adv-x="382" d="M382 655Q368 660 351 662T308 665Q270 665 244 649T218 589V500H359V405H218V0H106V405H15V474L106 500V599Q106 680 152 721T300 762Q325 762 346 759T382 750V655Z" />
<glyph unicode="g" glyph-name="g" horiz-adv-x="524" d="M454 322Q454 279 443 244T407 184T342 146T245 132Q229 132 215 133T187 136Q181 130 177 123T173 107Q173 82 203 78L384 56Q458 47 488 13T518 -84Q518 -132 495 -166T432 -221T342 -252T237 -262Q187
-262 145 -254T71 -228T23 -183T6 -116Q6 -91 15 -71T38 -35T71 -9T110 8V9Q91 20 81 39T71 78Q71 106 85 125T116 159Q73 183 55 225T36 322Q36 365 47 400T83 460T148 498T245 512Q298 512 337 500H510V429L439 409Q454 370 454 322ZM210 -15Q191 -18 174 -24T143
-40T121 -63T113 -95Q113 -137 144 -155T245 -173Q278 -173 308 -168T360 -153T396 -126T410 -87Q410 -61 397 -49T352 -33L210 -15ZM142 322Q142 301 146 283T162 251T193 229T245 221Q276 221 296 229T328 250T343 282T348 322Q348 343 344 361T328 393T297 415T245
423Q213 423 193 415T162 394T147 362T142 322Z" />
<glyph unicode="h" glyph-name="h" horiz-adv-x="524" d="M361 343Q361 417 282 417Q243 417 215 408T167 388V0H55V750H167V475Q196 492 229 502T301 512Q349 512 381 501T434 469T464 419T473 353V0H361V343V343Z" />
<glyph unicode="i" glyph-name="i" horiz-adv-x="257" d="M197 -7Q128 -7 97 25T65 123V500H177V124Q177 103 186 95T219 86V-5Q216 -6 212 -6Q208 -7 197 -7ZM48 648Q48 678 69 699T121 721Q151 721 172 700T194 648Q194 618 173 597T121 575Q91 575 70 596T48 648Z" />
<glyph unicode="j" glyph-name="j" horiz-adv-x="242" d="M-51 -158Q3 -158 34 -132T65 -58V500H177V-80Q177 -126 157 -160T105 -217T32 -251T-51 -262V-158ZM48 648Q48 678 69 699T121 721Q151 721 172 700T194 648Q194 618 173 597T121 575Q91 575 70 596T48 648Z" />
<glyph unicode="k" glyph-name="k" horiz-adv-x="522" d="M286 294L510 0H371L215 222L167 173V0H55V750H167V306L344 500H489L286 294Z" />
<glyph unicode="l" glyph-name="l" horiz-adv-x="257" d="M197 -7Q128 -7 97 25T65 123V750H177V124Q177 103 186 95T219 86V-5Q216 -6 212 -6Q208 -7 197 -7Z" />
<glyph unicode="m" glyph-name="m" horiz-adv-x="794" d="M631 353Q631 388 612 402T560 417Q523 417 498 408T452 386Q455 359 455 331V0H343V353Q343 388 325 402T272 417Q237 417 212 408T167 388V0H55V500H121L139 460Q171 485 212 498T290 512Q341 512 371
499T418 462Q452 486 494 499T578 512Q622 512 653 501T705 468T734 418T743 353V0H631V353Z" />
<glyph unicode="n" glyph-name="n" horiz-adv-x="524" d="M361 0V343Q361 417 282 417Q243 417 215 408T167 388V0H55V500H121L139 460Q177 486 218 499T301 512Q349 512 381 501T434 469T464 419T473 353V0H361Z" />
<glyph unicode="o" glyph-name="o" horiz-adv-x="526" d="M263 82Q299 82 320 93T353 125T368 178T372 250Q372 290 369 321T354 374T321 407T263 418Q227 418 206 407T173 375T158 322T154 250Q154 210 157 179T172 126T205 93T263 82ZM263 -12Q196 -12 153 7T85
61T51 144T41 250Q41 308 50 356T85 438T153 492T263 512Q330 512 373 493T441 439T475 356T485 250Q485 192 476 144T441 62T373 8T263 -12Z" />
<glyph unicode="p" glyph-name="p" horiz-adv-x="542" d="M301 -12Q263 -12 229 -1T167 27V-250H55V500H121L139 460Q172 484 211 498T301 512Q356 512 394 494T456 443T490 360T501 250Q501 189 491 141T456 58T394 6T301 -12ZM275 83Q312 83 334 96T368 132T384
185T388 250Q388 285 384 315T368 368T334 404T275 417Q235 417 209 407T167 388V112Q182 104 208 94T275 83Z" />
<glyph unicode="q" glyph-name="q" horiz-adv-x="542" d="M241 -12Q186 -12 148 6T86 58T52 140T41 250Q41 311 51 360T86 442T148 494T241 512Q292 512 331 498T403 460L421 500H487V-250H375V27Q348 10 314 -1T241 -12ZM267 83Q307 83 333 93T375 112V388Q360
396 334 406T267 417Q230 417 208 404T174 369T158 316T154 250Q154 215 158 185T174 132T208 96T267 83Z" />
<glyph unicode="r" glyph-name="r" horiz-adv-x="366" d="M350 410Q332 416 295 416Q250 416 218 407T167 386V0H55V500H121L139 460Q167 483 207 497T297 512Q313 512 326 510T350 506V410Z" />
<glyph unicode="s" glyph-name="s" horiz-adv-x="465" d="M151 356Q151 330 168 318T234 300Q290 295 326 284T384 255T414 210T423 149Q423 117 412 88T377 36T311 1T210 -12Q158 -12 115 -4T45 15V111Q70 102 108 93T194 83Q254 83 283 97T313 145Q313 173 297
187T230 207Q173 212 137 223T79 253T50 296T42 353Q42 385 53 414T88 464T151 499T245 512Q296 512 333 506T400 487V390Q368 402 332 410T247 418Q202 418 177 404T151 356Z" />
<glyph unicode="t" glyph-name="t" horiz-adv-x="380" d="M342 -5Q329 -8 311 -10T280 -12Q196 -12 150 25T104 144V405H13V474L104 500V619L216 651V500H357V405H216V157Q216 119 235 101T298 83Q311 83 322 84T342 87V-5Z" />
<glyph unicode="u" glyph-name="u" horiz-adv-x="524" d="M163 500V157Q163 83 242 83Q281 83 309 92T357 112V500H469V0H403L385 40Q347 14 306 1T223 -12Q175 -12 143 -1T90 31T60 81T51 147V500H163Z" />
<glyph unicode="v" glyph-name="v" horiz-adv-x="500" d="M134 500L250 138L366 500H487L296 -9H204L13 500H134Z" />
<glyph unicode="w" glyph-name="w" horiz-adv-x="696" d="M244 -9H149L18 500H132L200 156L297 500H399L496 156L564 500H678L547 -9H452L348 368L244 -9Z" />
<glyph unicode="x" glyph-name="x" horiz-adv-x="510" d="M255 185L144 0H15L185 257L26 500H153L255 326L357 500H484L325 257L495 0H366L255 185Z" />
<glyph unicode="y" glyph-name="y" horiz-adv-x="500" d="M137 500L250 143L363 500H487L201 -250H76L200 17L13 500H137Z" />
<glyph unicode="z" glyph-name="z" horiz-adv-x="439" d="M17 0V79L271 402L35 401V500H415V421L161 98L426 99V0H17Z" />
<glyph unicode="{" glyph-name="braceleft" horiz-adv-x="248" d="M30 357Q71 357 70 396L52 707Q50 736 58 756T83 790T121 810T170 816H218V712H203Q159 712 161 673L179 381Q181 358 172 338T145 305Q162 292 171 272T179 229L161 -63Q159 -102 203 -102H218V-206H170Q144
-206 122 -200T83 -181T59 -147T52 -97L70 214Q72 252 33 253H18V357H30Z" />
<glyph unicode="|" glyph-name="bar" horiz-adv-x="266" d="M77 -200V800H189V-200H77Z" />
<glyph unicode="}" glyph-name="braceright" horiz-adv-x="248" d="M230 357V253H215Q176 252 178 214L196 -97Q199 -155 166 -180T79 -206H30V-102H45Q89 -102 87 -63L69 229Q68 252 78 273T105 305Q88 316 78 337T69 381L87 673Q89 712 45 712H30V816H79Q132
816 165 791T196 707L178 396Q176 357 218 357H230Z" />
<glyph unicode="~" glyph-name="asciitilde" horiz-adv-x="490" d="M342 354Q361 354 377 358T407 369T430 382T445 394V286Q432 274 406 263T344 252Q306 252 282 263T237 288T197 313T148 325Q129 325 113 321T83 310T60 297T45 285V393Q58 405 84 416T146 427Q184
427 208 416T253 391T293 366T342 354Z" />
</font>
</defs>
</svg>
