<?xml version="1.0" standalone="no"?> <!DOCTYPE svg PUBLIC "-//W3C//DTD SVG 1.0//EN" "http://www.w3.org/TR/2001/REC-SVG-20010904/DTD/svg10.dtd" > <svg xmlns="http://www.w3.org/2000/svg" width="100%" height="100%">
<defs >
<font id="apexnewbook" horiz-adv-x="411" ><font-face
    font-family="Apex New Truetype"
    units-per-em="1000"
    panose-1="2 1 6 0 4 5 1 1 1 3"
    ascent="750"
    descent="-250"
    alphabetic="0" />
<missing-glyph horiz-adv-x="649" d="M247 293V535H403V293H247ZM325 47Q244 47 175 31T50 -10V156Q106 179 175 193T325 208Q406 208 475 194T600 156V-10Q544 14 475 30T325 47ZM515 760Q556 760 583 733T610 665Q610 625 583 598T515 570Q475 570 448 597T420
665Q420 706 447 733T515 760ZM135 760Q175 760 202 733T230 665Q230 625 203 598T135 570Q94 570 67 597T40 665Q40 706 67 733T135 760Z" />
<glyph unicode=" " glyph-name="space" horiz-adv-x="170" />
<glyph unicode="!" glyph-name="exclam" horiz-adv-x="190" d="M75 210L45 750H145L115 210H75ZM45 40Q45 61 59 75T95 90Q116 90 130 76T145 40Q145 19 131 5T95 -10Q74 -10 60 4T45 40Z" />
<glyph unicode="&quot;" glyph-name="quotedbl" horiz-adv-x="330" d="M76 500L45 750H145L114 500H76ZM216 500L185 750H285L254 500H216Z" />
<glyph unicode="#" glyph-name="numbersign" horiz-adv-x="555" d="M135 224L188 401H92L112 467H207L255 625H324L276 467H423L471 625H540L492 467H588L568 401H473L420 224H516L496 158H400L353 0H284L331 158H184L137 0H68L115 158H20L40 224H135ZM204 224H351L404
401H257L204 224Z" />
<glyph unicode="$" glyph-name="dollar" horiz-adv-x="515" d="M116 422Q116 383 151 370T260 349Q315 344 353 335T416 310T452 268T464 207Q464 139 406 96T225 52L186 -62H111L157 58Q127 62 100 67T59 80V139Q70 134 89 130T131 122T182 116T236 113Q318 113
357 137T397 206Q397 249 365 267T255 291Q199 296 160 305T97 329T62 367T51 422Q51 494 108 533T282 572L321 687H396L350 567Q375 563 398 559T439 546V487Q410 497 365 504T266 511Q188 511 152 491T116 422Z" />
<glyph unicode="%" glyph-name="percent" horiz-adv-x="943" d="M221 265Q130 265 90 314T50 450Q50 537 90 586T221 635Q312 635 352 586T392 450Q392 363 352 314T221 265ZM722 360Q813 360 853 311T893 175Q893 88 853 39T722 -10Q631 -10 591 39T551 175Q551
262 591 311T722 360ZM212 0L654 625H731L289 0H212ZM221 325Q278 325 303 354T328 450Q328 517 303 546T221 575Q164 575 139 546T114 450Q114 383 139 354T221 325ZM722 300Q665 300 640 271T615 175Q615 108 640 79T722 50Q779 50 804 79T829 175Q829 242 804
271T722 300Z" />
<glyph unicode="&amp;" glyph-name="ampersand" horiz-adv-x="705" d="M141 592Q141 622 150 652T179 706T233 745T315 760Q364 760 397 745T450 706T479 652T488 592Q488 552 473 523T431 472T371 432T300 397L274 385Q299 346 327 312Q368 262 411 223T502 153Q556
212 585 300T615 500H683Q683 377 651 280T560 116Q596 96 632 79T706 46L682 -10Q639 7 597 27T514 71Q465 32 407 11T279 -10Q232 -10 190 0T115 35T64 100T45 198Q45 246 56 280T87 339T131 381T184 412Q164 454 153 498T141 592ZM278 269Q243 311 215 356Q194
345 176 332T144 300T123 257T115 198Q115 155 130 128T168 84T221 61T279 54Q377 54 452 109Q405 141 362 179T278 269ZM210 592Q210 551 219 514T245 440L272 453Q300 466 326 479T374 508T407 544T420 592Q420 612 415 631T398 665T366 689T315 698Q285 698
265 689T232 665T215 631T210 592Z" />
<glyph unicode="&apos;" glyph-name="quotesingle" horiz-adv-x="190" d="M76 500L45 750H145L114 500H76Z" />
<glyph unicode="(" glyph-name="parenleft" horiz-adv-x="280" d="M175 -206Q156 -178 134 -130T94 -17T63 129T50 305Q50 400 62 481T93 627T134 740T175 816H250Q231 788 209 740T168 627T137 481T124 305Q124 210 136 129T168 -17T209 -130T250 -206H175Z" />
<glyph unicode=")" glyph-name="parenright" horiz-adv-x="280" d="M30 -206Q49 -178 71 -130T112 -17T143 129T156 305Q156 400 144 481T112 627T71 740T30 816H105Q124 788 146 740T186 627T217 481T230 305Q230 210 218 129T187 -17T146 -130T105 -206H30Z" />
<glyph unicode="*" glyph-name="asterisk" horiz-adv-x="355" d="M217 550L316 445L253 402L185 528L217 550ZM171 528L103 400L42 446L139 550L171 528ZM159 609L139 750H217L197 609H159ZM210 601L339 662L361 588L221 564L210 601ZM135 564L-6 588L18 661L146
601L135 564Z" />
<glyph unicode="+" glyph-name="plus" horiz-adv-x="490" d="M212 141V308H45V374H212V541H278V374H445V308H278V141H212Z" />
<glyph unicode="," glyph-name="comma" horiz-adv-x="190" d="M140 66L75 -125H25L50 66H140Z" />
<glyph unicode="-" glyph-name="hyphen" horiz-adv-x="310" d="M280 272H30V338H280V272Z" />
<glyph unicode="." glyph-name="period" horiz-adv-x="190" d="M45 40Q45 61 59 75T95 90Q116 90 130 76T145 40Q145 19 131 5T95 -10Q74 -10 60 4T45 40Z" />
<glyph unicode="/" glyph-name="slash" horiz-adv-x="390" d="M-15 -206L332 816H405L58 -206H-15Z" />
<glyph unicode="0" glyph-name="zero" horiz-adv-x="574" d="M287 52Q335 52 366 69T416 119T441 201T448 313Q448 375 441 423T416 505T367 555T287 573Q239 573 208 556T158 505T133 424T126 313Q126 250 133 202T158 120T207 69T287 52ZM287 -10Q218 -10 174
11T103 74T66 175T55 313Q55 391 65 451T102 552T173 614T287 635Q356 635 400 614T471 552T508 451T519 313Q519 235 509 175T472 74T401 12T287 -10Z" />
<glyph unicode="1" glyph-name="one" horiz-adv-x="330" d="M216 635V0H146V563L11 558V585L186 635H216Z" />
<glyph unicode="2" glyph-name="two" horiz-adv-x="495" d="M374 459Q374 514 342 543T227 573Q181 573 140 564T69 543V607Q83 613 102 618T144 626T188 632T228 635Q295 635 337 620T403 580T434 523T443 458Q443 416 432 380T387 301T291 202T126 62H455V0H30V48Q109
108 165 156T259 243T320 312T355 368T370 416T374 459Z" />
<glyph unicode="3" glyph-name="three" horiz-adv-x="505" d="M208 573Q162 573 121 564T50 543V607Q64 613 83 618T125 626T168 632T208 635Q274 635 318 619T390 575T429 511T441 433Q441 409 434 384T414 337T382 297T339 269Q371 260 395 242T434 199T458
145T466 86Q466 42 453 2T411 -68T333 -117T215 -135Q160 -135 118 -126T50 -103V-41Q78 -52 117 -62T215 -73Q269 -73 303 -60T357 -24T384 27T392 86Q392 162 353 196T221 231H110V297H221Q263 297 291 309T336 340T360 384T367 433Q367 461 361 486T337 530T289
561T208 573Z" />
<glyph unicode="4" glyph-name="four" horiz-adv-x="570" d="M433 156H540V94H433V-125H365V94H40V136L382 635H433V156ZM365 156L367 517L119 154L365 156Z" />
<glyph unicode="5" glyph-name="five" horiz-adv-x="500" d="M204 -73Q235 -73 271 -67T337 -42T387 13T407 108Q407 165 390 195T344 240T281 256T209 258H69V625H464V563H137V318Q160 320 186 321T232 323Q277 323 321 317T401 288T457 223T479 108Q479 27 452
-21T384 -94T295 -127T203 -135Q148 -135 106 -126T38 -103V-41Q66 -52 106 -62T204 -73Z" />
<glyph unicode="6" glyph-name="six" horiz-adv-x="575" d="M330 696Q271 696 231 672T165 606T130 504T119 374Q128 391 143 408T180 440T232 463T299 472Q376 472 421 449T489 390T518 312T525 231Q525 193 517 151T485 73T417 14T299 -10Q218 -10 170 15T97
87T63 199T55 345Q55 437 67 513T110 644T194 729T330 760Q403 760 444 749T505 726V660Q477 674 434 685T330 696ZM129 231Q129 201 135 170T160 112T211 69T299 52Q350 52 380 70T427 116T449 174T455 231Q455 256 451 287T431 346T384 391T299 410Q246 410 213
393T161 350T136 292T129 231Z" />
<glyph unicode="7" glyph-name="seven" horiz-adv-x="435" d="M66 -125L358 563H10V625H425V577L143 -125H66Z" />
<glyph unicode="8" glyph-name="eight" horiz-adv-x="570" d="M285 -10Q215 -10 167 8T88 56T45 127T32 211Q32 239 39 268T62 322T100 366T156 395Q107 418 82 460T57 552Q57 593 68 630T107 697T177 743T285 760Q349 760 392 743T463 697T501 631T513 552Q513
503 488 461T414 395Q446 386 469 367T508 322T530 268T538 211Q538 167 525 127T482 57T404 8T285 -10ZM285 358Q197 358 152 323T106 211Q106 184 114 156T142 105T197 67T285 52Q338 52 372 66T427 104T456 156T464 211Q464 287 419 322T285 358ZM285 420Q327
420 356 431T404 462T431 504T439 552Q439 577 433 603T410 650T363 684T285 698Q237 698 207 685T160 650T137 603T131 552Q131 528 139 505T165 462T213 432T285 420Z" />
<glyph unicode="9" glyph-name="nine" horiz-adv-x="575" d="M250 -71Q309 -71 349 -47T414 19T450 121T461 251Q452 234 437 217T400 185T348 162T281 153Q204 153 159 176T91 235T62 313T55 394Q55 432 63 474T95 552T163 611T281 635Q362 635 410 610T483 538T517
426T525 280Q525 188 513 112T470 -20T386 -105T250 -135Q177 -135 136 -124T75 -101V-35Q103 -49 146 -60T250 -71ZM451 394Q451 424 445 455T420 513T369 556T281 573Q230 573 199 555T152 509T130 451T125 394Q125 368 129 337T149 279T196 234T281 215Q334
215 367 232T419 275T444 333T451 394Z" />
<glyph unicode=":" glyph-name="colon" horiz-adv-x="190" d="M45 40Q45 61 59 75T95 90Q116 90 130 76T145 40Q145 19 131 5T95 -10Q74 -10 60 4T45 40ZM45 375Q45 396 59 410T95 425Q116 425 130 411T145 375Q145 354 131 340T95 325Q74 325 60 339T45 375Z" />
<glyph unicode=";" glyph-name="semicolon" horiz-adv-x="190" d="M140 66L75 -125H25L50 66H140ZM45 375Q45 396 59 410T95 425Q116 425 130 411T145 375Q145 354 131 340T95 325Q74 325 60 339T45 375Z" />
<glyph unicode="&lt;" glyph-name="less" horiz-adv-x="490" d="M445 75L45 308V374L445 607V534L114 341L445 148V75Z" />
<glyph unicode="=" glyph-name="equal" horiz-adv-x="490" d="M445 374H45V440H445V374ZM445 242H45V308H445V242Z" />
<glyph unicode="&gt;" glyph-name="greater" horiz-adv-x="490" d="M45 607L445 374V308L45 75V148L376 341L45 534V607Z" />
<glyph unicode="?" glyph-name="question" horiz-adv-x="470" d="M180 698Q126 698 87 691T25 675V735Q37 740 56 744T96 752T139 758T179 760Q258 760 306 744T380 700T416 636T425 562Q425 515 412 483T375 428T317 388T241 354Q214 343 199 330T177 299T169
260T167 210H130Q124 240 122 268T127 323T159 371T227 410Q252 419 275 429T317 456T347 497T358 561Q358 592 351 617T325 661T270 688T180 698ZM118 40Q118 61 132 75T168 90Q189 90 203 76T218 40Q218 19 204 5T168 -10Q147 -10 133 4T118 40Z" />
<glyph unicode="@" glyph-name="at" horiz-adv-x="870" d="M40 250Q40 350 66 423T144 543T269 612T440 635Q633 635 731 554T830 308Q830 270 823 225T791 141T723 76T607 50H568L553 87Q518 61 484 51T417 40Q379 40 346 52T287 91T247 156T232 250Q232 304
247 343T287 409T345 447T417 460Q449 460 483 450T553 413L568 450H607V107Q696 106 731 159T766 313Q766 384 747 434T687 515T585 561T440 576Q356 576 294 558T191 501T130 399T109 250Q109 163 129 101T191 0T294 -58T440 -76Q474 -76 509 -73T577 -65T641
-52T695 -34L696 -96Q648 -113 580 -124T440 -135Q344 -135 270 -113T144 -43T67 76T40 250ZM427 102Q456 102 482 110T537 134V366Q508 382 482 390T427 398Q361 398 332 362T302 250Q302 175 331 139T427 102Z" />
<glyph unicode="A" glyph-name="A" horiz-adv-x="630" d="M25 0L290 760H340L605 0H528L459 210H171L102 0H25ZM190 269H439L315 646L190 269Z" />
<glyph unicode="B" glyph-name="B" horiz-adv-x="615" d="M75 750H312Q378 750 422 735T494 692T533 629T545 552Q545 503 521 460T447 396Q479 387 502 369T541 325T563 271T570 211Q570 167 557 129T515 62T437 17T319 0H75V750ZM143 63H328Q381 63 414 76T465
110T489 157T496 211Q496 287 459 323T330 359H143V63ZM471 552Q471 577 466 601T444 644T399 675T322 687H143V422H330Q372 422 399 433T443 463T465 504T471 552Z" />
<glyph unicode="C" glyph-name="C" horiz-adv-x="610" d="M60 375Q60 455 74 525T123 647T214 730T355 760Q424 760 471 750T550 725V658Q524 668 501 675T455 688T408 695T355 697Q293 697 251 672T182 604T144 502T132 375Q132 307 144 249T182 147T250 78T355
53Q383 53 407 55T455 62T501 74T550 92V25Q519 11 472 1T355 -10Q271 -10 215 20T124 102T75 225T60 375Z" />
<glyph unicode="D" glyph-name="D" horiz-adv-x="655" d="M75 0V750H279Q371 750 432 722T529 643T580 524T595 375Q595 295 580 227T529 108T432 29T279 0H75ZM143 63H283Q350 63 396 86T470 151T511 250T523 375Q523 442 511 499T471 598T396 663T283 687H143V63Z" />
<glyph unicode="E" glyph-name="E" horiz-adv-x="570" d="M475 359H143V63H510V0H75V750H510V687H143V422H475V359Z" />
<glyph unicode="F" glyph-name="F" horiz-adv-x="550" d="M465 359H143V0H75V750H500V687H143V422H465V359Z" />
<glyph unicode="G" glyph-name="G" horiz-adv-x="660" d="M355 -10Q271 -10 215 20T124 102T75 225T60 375Q60 455 74 525T123 647T214 730T355 760Q433 760 483 747T565 718V650Q536 662 511 671T462 685T411 694T355 697Q293 697 251 672T182 604T144 502T132
375Q132 307 144 249T182 147T250 78T355 53Q376 53 399 54T444 57T485 64T517 75V331H360V394H585V31Q547 13 491 2T355 -10Z" />
<glyph unicode="H" glyph-name="H" horiz-adv-x="660" d="M517 0V359H143V0H75V750H143V422H517V750H585V0H517Z" />
<glyph unicode="I" glyph-name="I" horiz-adv-x="260" d="M95 0V750H165V0H95Z" />
<glyph unicode="J" glyph-name="J" horiz-adv-x="379" d="M35 61Q53 56 67 55T105 53Q154 53 184 71T214 138V750H284V140Q284 68 242 29T105 -10Q89 -10 70 -9T35 -3V61Z" />
<glyph unicode="K" glyph-name="K" horiz-adv-x="595" d="M208 363L143 288V0H75V750H143V376L456 750H544L252 414L574 0H485L208 363Z" />
<glyph unicode="L" glyph-name="L" horiz-adv-x="530" d="M143 63H490V0H75V750H143V63Z" />
<glyph unicode="M" glyph-name="M" horiz-adv-x="840" d="M448 115H392L139 661L143 0H75V750H167L420 198L673 750H765V0H697L701 661L448 115Z" />
<glyph unicode="N" glyph-name="N" horiz-adv-x="670" d="M544 0L141 611L143 0H75V750H126L529 139L527 750H595V0H544Z" />
<glyph unicode="O" glyph-name="O" horiz-adv-x="680" d="M340 53Q408 53 449 78T512 146T541 248T548 375Q548 442 541 501T512 603T449 672T340 697Q272 697 231 672T168 604T139 501T132 375Q132 307 139 249T168 147T231 78T340 53ZM340 -10Q248 -10 193 22T109
109T70 232T60 375Q60 448 69 517T108 641T193 727T340 760Q432 760 487 728T571 641T610 518T620 375Q620 301 611 232T572 109T487 23T340 -10Z" />
<glyph unicode="P" glyph-name="P" horiz-adv-x="590" d="M143 0H75V750H304Q374 750 422 732T499 682T542 610T555 525Q555 481 542 441T500 369T422 319T304 300H143V0ZM143 363H313Q366 363 399 378T450 417T474 469T481 525Q481 552 475 580T450 633T399 672T313
687H143V363Z" />
<glyph unicode="Q" glyph-name="Q" horiz-adv-x="680" d="M423 6L710 -52V-124L248 0Q186 16 149 52T93 139T67 249T60 375Q60 455 70 525T110 648T195 730T340 760Q431 760 486 730T571 648T610 526T620 375Q620 305 614 244T588 134T528 53T423 7V6ZM340 53Q408
53 449 78T512 146T541 248T548 375Q548 442 541 501T512 603T449 672T340 697Q272 697 231 672T168 604T139 501T132 375Q132 307 139 249T168 147T231 78T340 53Z" />
<glyph unicode="R" glyph-name="R" horiz-adv-x="621" d="M143 0H75V750H310Q380 750 427 735T502 693T543 626T555 539Q555 464 525 412T417 340L596 0H517L349 329Q341 328 333 328T316 328H143V0ZM143 391H328Q378 391 408 403T454 435T476 482T481 539Q481
569 476 596T455 643T408 675T328 687H143V391Z" />
<glyph unicode="S" glyph-name="S" horiz-adv-x="595" d="M305 697Q249 697 214 685T159 653T131 607T123 550Q123 510 134 487T168 450T225 430T303 418Q358 411 402 399T477 365T524 307T541 216Q541 178 529 138T486 65T402 11T264 -10Q238 -10 209 -7T151
2T97 15T54 30V95Q72 89 92 82T138 68T195 58T265 53Q323 53 362 66T425 101T458 152T468 216Q468 256 459 281T430 322T378 346T299 360Q233 368 186 381T110 415T68 470T54 551Q54 584 64 620T101 688T178 739T306 760Q375 760 422 750T501 725V658Q450 680 405
688T305 697Z" />
<glyph unicode="T" glyph-name="T" horiz-adv-x="560" d="M314 687V0H246V687H39V750H521V687H314Z" />
<glyph unicode="U" glyph-name="U" horiz-adv-x="670" d="M335 53Q360 53 394 58T458 82T510 139T532 246V750H600V235Q600 182 587 143T551 77T501 33T444 7T386 -6T335 -10Q301 -10 256 -2T169 33T99 107T70 235V750H138V246Q138 178 159 140T211 82T276 58T335 53Z" />
<glyph unicode="V" glyph-name="V" horiz-adv-x="640" d="M610 750L345 -10H295L30 750H107L320 104L533 750H610Z" />
<glyph unicode="W" glyph-name="W" horiz-adv-x="880" d="M478 750L647 96L778 750H850L686 -10H613L440 660L267 -10H194L30 750H102L233 96L402 750H478Z" />
<glyph unicode="X" glyph-name="X" horiz-adv-x="630" d="M500 750H585L345 380L590 0H502L300 334L98 0H10L255 380L15 750H100L300 424L500 750Z" />
<glyph unicode="Y" glyph-name="Y" horiz-adv-x="670" d="M369 310V0H301V310L30 750H105L335 365L565 750H640L369 310Z" />
<glyph unicode="Z" glyph-name="Z" horiz-adv-x="610" d="M40 0V46L467 689L60 687V750H555V704L128 61L570 63V0H40Z" />
<glyph unicode="[" glyph-name="bracketleft" horiz-adv-x="230" d="M136 -140H200V-206H65V816H200V750H136V-140Z" />
<glyph unicode="\" glyph-name="backslash" horiz-adv-x="390" d="M332 -206L-15 816H58L405 -206H332Z" />
<glyph unicode="]" glyph-name="bracketright" horiz-adv-x="230" d="M94 750H30V816H165V-206H30V-140H94V750Z" />
<glyph unicode="^" glyph-name="asciicircum" horiz-adv-x="560" d="M14 375L247 760H313L546 375H473L280 686L87 375H14Z" />
<glyph unicode="_" glyph-name="underscore" horiz-adv-x="280" d="M0 -95H280V-155H0V-95Z" />
<glyph unicode="`" glyph-name="grave" horiz-adv-x="570" d="M260 550L180 750H260L310 550H260Z" />
<glyph unicode="a" glyph-name="a" horiz-adv-x="495" d="M360 343Q360 370 355 390T336 423T299 442T241 448Q190 448 155 441T91 423V483Q124 497 164 503T241 510Q297 510 333 498T391 464T421 410T430 342V0H391L376 40Q342 15 303 3T225 -10Q176 -10 143
3T89 39T59 90T50 151Q50 183 59 210T90 257T145 291T228 307L360 315V343ZM223 253Q169 248 145 222T121 151Q121 134 124 117T138 85T170 61T227 52Q268 52 298 62T360 92V266L223 253Z" />
<glyph unicode="b" glyph-name="b" horiz-adv-x="535" d="M275 510Q335 510 375 490T438 434T470 352T480 250Q480 196 471 149T438 66T375 11T275 -10Q234 -10 196 3T119 41L104 0H65V750H135V469Q167 490 203 500T275 510ZM275 448Q226 448 195 440T135 416V84Q164
68 195 60T275 52Q320 52 346 69T387 114T406 177T410 250Q410 287 406 322T388 386T347 431T275 448Z" />
<glyph unicode="c" glyph-name="c" horiz-adv-x="460" d="M55 250Q55 304 64 351T97 434T162 489T266 510Q303 510 342 505T415 485V425Q386 435 352 441T265 448Q218 448 190 431T148 386T129 323T125 250Q125 213 129 178T147 114T190 69T265 52Q318 52 352
58T415 75V15Q382 1 343 -4T266 -10Q203 -10 162 10T97 66T64 148T55 250Z" />
<glyph unicode="d" glyph-name="d" horiz-adv-x="535" d="M260 510Q295 510 331 500T400 469V750H470V0H431L416 41Q377 16 339 3T260 -10Q200 -10 160 10T97 66T65 148T55 250Q55 304 64 351T97 434T160 489T260 510ZM260 448Q215 448 189 431T148 386T129 323T125
250Q125 213 129 178T147 114T188 69T260 52Q309 52 340 60T400 84V416Q371 432 340 440T260 448Z" />
<glyph unicode="e" glyph-name="e" horiz-adv-x="510" d="M55 250Q55 304 64 351T96 434T161 489T265 510Q329 510 366 490T423 434T449 352T455 250V218H125Q126 185 132 155T154 102T196 66T265 52Q319 52 356 58T430 80V20Q388 1 345 -4T265 -10Q202 -10 161
10T97 66T64 148T55 250ZM265 448Q221 448 195 434T153 395T132 340T125 275H385Q385 308 383 339T368 395T332 433T265 448Z" />
<glyph unicode="f" glyph-name="f" horiz-adv-x="375" d="M370 690Q355 694 339 696T300 698Q251 698 219 679T187 610V500H345V445H187V0H120V445H20V476L120 505V610Q120 682 163 721T300 760Q316 760 335 759T370 753V690Z" />
<glyph unicode="g" glyph-name="g" horiz-adv-x="510" d="M242 134Q204 134 176 140Q168 132 163 122T157 103Q157 68 195 64L365 44Q436 36 469 6T502 -90Q502 -136 481 -168T424 -220T341 -250T242 -260Q189 -260 148 -252T78 -226T34 -179T18 -109Q18 -58 48
-25T121 23V24Q107 34 98 49T89 90Q89 111 100 128T127 158Q82 183 65 226T47 322Q47 361 56 395T87 454T147 495T242 510Q265 510 285 508T322 500H492V462L408 438Q424 414 430 385T437 322Q437 283 428 249T397 190T337 149T242 134ZM205 5Q180 -1 158 -9T120
-31T93 -63T83 -105Q83 -161 124 -180T242 -200Q279 -200 314 -195T376 -177T419 -143T436 -90Q436 -52 417 -35T351 -12L205 5ZM242 195Q286 195 311 205T350 233T368 274T372 322Q372 347 368 370T351 410T312 438T242 449Q198 449 173 439T134 411T116 370T112
322Q112 297 116 274T133 234T172 206T242 195Z" />
<glyph unicode="h" glyph-name="h" horiz-adv-x="500" d="M370 363Q370 412 344 430T270 448Q221 448 191 440T133 416V0H65V750H133V469Q165 490 200 500T270 510Q360 510 400 471T440 360V0H370V363V363Z" />
<glyph unicode="i" glyph-name="i" horiz-adv-x="240" d="M191 -10Q137 -10 109 15T81 100V500H149V92Q149 66 158 57T191 47V-10ZM65 650Q65 671 79 685T115 700Q136 700 150 686T165 650Q165 629 151 615T115 600Q94 600 80 614T65 650Z" />
<glyph unicode="j" glyph-name="j" horiz-adv-x="230" d="M-47 -201Q-25 -198 -2 -191T39 -170T69 -136T81 -87V500H149V-96Q149 -135 131 -165T85 -215T22 -247T-47 -260V-201ZM65 650Q65 671 79 685T115 700Q136 700 150 686T165 650Q165 629 151 615T115 600Q94
600 80 614T65 650Z" />
<glyph unicode="k" glyph-name="k" horiz-adv-x="500" d="M238 294L480 0H393L196 254L133 194V0H65V750H133V276L359 500H453L238 294Z" />
<glyph unicode="l" glyph-name="l" horiz-adv-x="240" d="M191 -10Q137 -10 109 15T81 100V750H149V92Q149 66 158 57T191 47V-10V-10Z" />
<glyph unicode="m" glyph-name="m" horiz-adv-x="785" d="M655 363Q655 412 629 430T560 448Q537 448 519 446T484 440T454 429T424 415Q430 391 430 363V0H360V363Q360 412 334 430T265 448Q221 448 193 441T135 418V0H65V500H104L119 459Q155 485 192 497T265
510Q366 510 405 453Q444 480 483 495T560 510Q641 510 683 473T725 360V0H655V363Z" />
<glyph unicode="n" glyph-name="n" horiz-adv-x="500" d="M370 363Q370 412 344 430T270 448Q221 448 192 440T135 416V0H65V500H104L119 458Q189 510 270 510Q360 510 400 471T440 360V0H370V363Z" />
<glyph unicode="o" glyph-name="o" horiz-adv-x="530" d="M475 250Q475 193 467 145T435 63T370 9T265 -10Q201 -10 160 9T96 62T64 145T55 250Q55 307 64 355T96 437T160 491T265 510Q329 510 370 491T434 438T466 355T475 250ZM405 250Q405 292 402 328T384
391T342 433T265 448Q215 448 187 433T146 392T129 329T125 250Q125 208 128 172T145 109T187 67T265 52Q314 52 342 67T384 108T401 171T405 250Z" />
<glyph unicode="p" glyph-name="p" horiz-adv-x="535" d="M275 -10Q240 -10 204 0T135 31V-250H65V500H104L119 459Q158 484 196 497T275 510Q335 510 375 490T438 434T470 352T480 250Q480 196 471 149T438 66T375 11T275 -10ZM275 52Q320 52 346 69T387 114T406
177T410 250Q410 287 406 322T388 386T347 431T275 448Q226 448 195 440T135 416V84Q164 68 195 60T275 52Z" />
<glyph unicode="q" glyph-name="q" horiz-adv-x="535" d="M260 -10Q200 -10 160 10T97 66T65 148T55 250Q55 304 64 351T97 434T160 489T260 510Q301 510 339 497T416 459L431 500H470V-250H400V31Q368 10 332 0T260 -10ZM260 52Q309 52 340 60T400 84V416Q371
432 340 440T260 448Q215 448 189 431T148 386T129 323T125 250Q125 213 129 178T147 114T188 69T260 52Z" />
<glyph unicode="r" glyph-name="r" horiz-adv-x="363" d="M340 440Q316 448 280 448Q229 448 196 440T135 416V0H65V500H104L119 458Q154 484 196 497T280 510Q297 510 311 509T340 505V440Z" />
<glyph unicode="s" glyph-name="s" horiz-adv-x="460" d="M118 362Q118 345 122 333T139 311T173 296T232 287Q285 282 319 271T373 241T400 199T408 144Q408 115 398 88T365 38T303 3T207 -10Q189 -10 168 -8T127 -3T88 5T58 15V75Q81 67 117 60T208 52Q247 52
272 59T313 80T334 109T340 143Q340 160 337 174T321 200T287 218T227 229Q173 234 139 245T85 274T59 314T52 362Q52 389 61 415T92 463T150 497T239 510Q274 510 312 505T383 485V425Q354 435 321 441T238 448Q201 448 178 442T141 424T123 396T118 362Z" />
<glyph unicode="t" glyph-name="t" horiz-adv-x="375" d="M325 -6Q316 -8 303 -9T280 -10Q249 -10 220 -3T169 21T134 63T120 126V445H20V476L120 505V640L190 660V500H345V445H190V134Q190 88 214 68T286 48Q296 48 305 48T325 50V-6Z" />
<glyph unicode="u" glyph-name="u" horiz-adv-x="500" d="M130 137Q130 88 156 70T230 52Q279 52 308 60T365 84V500H435V0H396L381 42Q311 -10 230 -10Q140 -10 100 29T60 140V500H130V137Z" />
<glyph unicode="v" glyph-name="v" horiz-adv-x="480" d="M97 500L240 90L383 500H460L265 -10H215L20 500H97Z" />
<glyph unicode="w" glyph-name="w" horiz-adv-x="700" d="M680 500L539 -10H487L350 425L213 -10H161L20 500H95L189 108L313 500H387L511 108L605 500H680Z" />
<glyph unicode="x" glyph-name="x" horiz-adv-x="490" d="M20 0L205 257L30 500H113L245 304L377 500H460L285 257L470 0H387L245 210L103 0H20Z" />
<glyph unicode="y" glyph-name="y" horiz-adv-x="480" d="M100 500L240 90L380 500H460L172 -250H97L210 13L20 500H100Z" />
<glyph unicode="z" glyph-name="z" horiz-adv-x="455" d="M35 0V45L328 441H50V500H415V455L122 59H425V0H35Z" />
<glyph unicode="{" glyph-name="braceleft" horiz-adv-x="210" d="M28 338Q51 338 61 347T70 377L52 707Q49 765 80 790T165 816H180V750H165Q121 750 123 711L141 381Q142 358 134 339T111 305Q125 291 133 272T141 229L123 -101Q121 -140 165 -140H180V-206H165Q112
-206 81 -181T52 -97L70 233Q72 269 33 272H18V338H28Z" />
<glyph unicode="|" glyph-name="bar" horiz-adv-x="245" d="M87 -206V816H158V-206H87Z" />
<glyph unicode="}" glyph-name="braceright" horiz-adv-x="210" d="M192 338V272H177Q138 269 140 233L158 -97Q161 -155 130 -180T45 -206H30V-140H45Q89 -140 87 -101L69 229Q68 252 78 273T102 305Q88 316 78 337T69 381L87 711Q89 750 45 750H30V816H45Q98
816 129 791T158 707L140 377Q138 338 182 338H192Z" />
<glyph unicode="~" glyph-name="asciitilde" horiz-adv-x="490" d="M342 334Q361 334 377 338T407 349T430 362T445 374V309Q432 297 406 286T344 275Q306 275 282 286T237 311T197 336T148 348Q129 348 113 344T83 333T60 320T45 308V373Q58 385 84 396T146 407Q184
407 208 396T253 371T293 346T342 334Z" />
</font>
</defs>
</svg>
